<mxfile host="app.diagrams.net" modified="2023-06-09T02:57:48.305Z" agent="Mozilla/5.0 (Macintosh; Intel Mac OS X 10_15_7) AppleWebKit/537.36 (KHTML, like Gecko) Chrome/114.0.0.0 Safari/537.36" version="21.3.7" etag="H5j-8WsPe6_xG41ZhhIX" type="github">
  <diagram name="第 1 页" id="4J4e76wfn4U18jax6qEM">
    <mxGraphModel>
      <root>
        <mxCell id="0" />
        <mxCell id="1" parent="0" />
      </root>
    </mxGraphModel>
  </diagram>
</mxfile>
